<svg width="25" height="30" viewBox="0 0 25 30" xmlns="http://www.w3.org/2000/svg"><g fill="#FFF" fill-rule="evenodd"><path d="M23.619 10.228c-1.73-2.536-4.412-2.882-5.354-2.91-2.252-.238-4.437 1.355-5.584 1.355-1.17 0-2.937-1.332-4.84-1.293-2.45.038-4.743 1.464-6 3.679-2.594 4.516-.66 11.152 1.826 14.802 1.244 1.789 2.696 3.784 4.598 3.714 1.86-.076 2.556-1.193 4.8-1.193 2.225 0 2.878 1.193 4.818 1.147 1.996-.03 3.253-1.795 4.453-3.6 1.437-2.047 2.014-4.067 2.037-4.17-.046-.015-3.877-1.485-3.916-5.932-.033-3.71 3.022-5.515 3.162-5.6zM16.794 4.917c1-1.258 1.685-2.97 1.495-4.707-1.448.064-3.26 1.007-4.303 2.238-.922 1.084-1.747 2.861-1.534 4.533 1.627.122 3.298-.826 4.342-2.064"/></g></svg>