<svg width="24" height="26" viewBox="0 0 24 26" xmlns="http://www.w3.org/2000/svg" xmlns:xlink="http://www.w3.org/1999/xlink"><defs><linearGradient x1="57.611%" y1="9.59%" x2="84.832%" y2="60.851%" id="a"><stop stop-color="#FF177B" offset="0%"/><stop stop-color="#FFEC73" offset="100%"/></linearGradient><linearGradient x1="46.103%" y1="-44.035%" x2="34.891%" y2="101.06%" id="c"><stop stop-color="#064AA2" offset="0%"/><stop stop-color="#63FFD4" offset="100%"/></linearGradient><linearGradient x1="74.34%" y1="50%" x2="9.635%" y2="100%" id="f"><stop stop-color="#FF4521" offset="0%"/><stop stop-color="#8A33DB" offset="100%"/></linearGradient><linearGradient x1="0%" y1="9.907%" x2="64.224%" y2="77.022%" id="i"><stop stop-color="#00A3B5" offset="0%"/><stop stop-color="#D6FFA1" offset="100%"/></linearGradient><path d="M14.22 13.114L.949.689c-.31.07-.495.3-.495.685v23.773c0 .327.133.521.297.587l13.47-12.62z" id="b"/><path d="M1.297 12.665l7.671-4.163 3.389-1.854 5.578-2.968L14.221.115.751 12.737c.15.048.415.022.621-.079" id="e"/><path d="M.878.801C.623.666.368.627.164.681l13.283 12.444 3.675-3.435-5.54-3.031L3.21 2.076.879.801z" id="h"/></defs><g fill="none" fill-rule="evenodd"><path d="M12.357 6.659L1.67.81C1.077.486.486.683.486 1.36V25.185c0 .508.422.728.938.446l10.933-5.983 2.123-1.161 3.416-1.87s4.7-2.572 5.326-2.913c.624-.342.564-.81.037-1.08-.528-.27-5.363-2.934-5.363-2.934l-5.54-3.031z" fill="url(#a)"/><g><mask id="d" fill="#fff"><use xlink:href="#b"/></mask><use fill="url(#c)" xlink:href="#b"/><path d="M17.886 9.69l-5.547-3.033c-.02.044-10.11-5.49-10.697-5.773C1.044.517.453.714.453 1.374v23.871c0 .525.422.745.892.49.56-.309 10.974-6.022 10.994-6.066l5.547-3.033c-.03.042 4.669-2.536 5.25-2.837.668-.383.608-.853.098-1.077-.544-.315-5.377-2.985-5.348-3.032" mask="url(#d)"/></g><g transform="translate(0 13)"><mask id="g" fill="#fff"><use xlink:href="#e"/></mask><path d="M12.339-6.343c-.02.044-10.11-5.49-10.697-5.773-.598-.367-1.189-.17-1.189.49v23.871c0 .525.422.745.892.49.56-.309 10.974-6.022 10.994-6.066l5.547-3.033c-.03.042 4.669-2.536 5.25-2.837.668-.383.608-.853.098-1.077-.544-.315-5.377-2.985-5.348-3.032l-5.547-3.033z" fill="url(#f)" mask="url(#g)"/></g><g transform="translate(.774)"><mask id="j" fill="#fff"><use xlink:href="#h"/></mask><use fill="url(#i)" xlink:href="#h"/><path d="M17.111 9.69l-5.546-3.033C11.545 6.7 1.455 1.167.868.884.27.517-.321.714-.321 1.374v23.871c0 .525.422.745.891.49.561-.309 10.975-6.022 10.995-6.066l5.546-3.033c-.028.042 4.67-2.536 5.25-2.837.669-.383.609-.853.099-1.077-.544-.315-5.377-2.985-5.349-3.032" mask="url(#j)"/></g></g></svg>