<svg width="46" height="46" viewBox="0 0 46 46" xmlns="http://www.w3.org/2000/svg"><g stroke-width="2" fill="none" fill-rule="evenodd" stroke-linecap="round" stroke-linejoin="round"><path d="M8 12h0a4 4 0 01-4-4h0a4 4 0 014-4h0a4 4 0 014 4h0a4 4 0 01-4 4zM11 42H5L4 31l-3-1v-9a4 4 0 014-4h6c1.454 0 2.727.777 3.427 1.937M38 12h0a4 4 0 004-4h0a4 4 0 00-4-4h0a4 4 0 00-4 4h0a4 4 0 004 4zM35 42h6l1-11 3-1v-9a4 4 0 00-4-4h-6a3.999 3.999 0 00-3.427 1.937" stroke="#28282A"/><path d="M23 13h0a6 6 0 01-6-6h0a6 6 0 016-6h0a6 6 0 016 6h0a6 6 0 01-6 6zM28 45H18l-1-12-4-1V22a4 4 0 014-4h12a4 4 0 014 4v10l-4 1-1 12z" stroke="#28282A"/></g></svg>