<svg width="24" height="20" viewBox="0 0 24 20" xmlns="http://www.w3.org/2000/svg"><g stroke="#F5AB19" stroke-width="2" fill="none" fill-rule="evenodd" stroke-linecap="round" stroke-linejoin="round"><path d="M19 19h4v-4.323a1 1 0 00-.629-.928l-3.742-1.5a1 1 0 01-.629-.926v-.878A3.982 3.982 0 0020 7V5a4 4 0 00-6-3.465M14.371 14.749l-3.742-1.5a1 1 0 01-.629-.926v-.451C13.27 11.435 14 10 14 10s-2-2-2-4a4 4 0 10-8 0c0 2-2 4-2 4s.73 1.435 4 1.872v.451a1 1 0 01-.629.928l-3.742 1.5a1 1 0 00-.629.926V19h14v-3.323a1 1 0 00-.629-.928z"/></g></svg>