<svg width="32" height="32" viewBox="0 0 32 32" xmlns="http://www.w3.org/2000/svg"><g fill="none" fill-rule="evenodd"><path d="M-2-2h36v36H-2z"/><g transform="translate(1.857 1.857)" stroke="#FFF" stroke-linecap="round" stroke-linejoin="round" stroke-width="2"><path d="M6.048 2.544c.892.66 1.616 1.497 2.272 2.598.573.96 1.847 3.634.68 5.144-1.32 1.707-5.143 2.283-5.143 3.857 0 1.184 1.677 2.535 2.572 3.857 1.346 1.988.734 3.914 0 5.143-.381.638-.99 1.183-1.663 1.586M25.287 5.435c-2.775 1.33-6.59 2.23-7.287 2.28-1.344.096-1.543-1.009-2.571-2.572-.772-1.173-2.572-2.64-2.572-3.857 0-.477.046-.864.169-1.242"/><circle cx="14.143" cy="14.143" r="14.143"/><path d="M23.16 15.304c.055 3.965-5.106 8.91-7.731 7.839-2.302-.939-.678-2.749-1.268-7.84-.246-2.115 2.015-3.856 4.5-3.856s4.472 1.728 4.5 3.857z"/></g></g></svg>