<svg width="170" height="125" viewBox="0 0 170 125" xmlns="http://www.w3.org/2000/svg"><g fill="none" fill-rule="evenodd"><path d="M94.335 88.64c-1.848 3.24-5.523 5.36-9.5 5.36-3.999 0-7.564-2.204-9.443-5.36zm1.88-12.82c0 6.204-5.089 11.05-11.213 11.05-6.124 0-11.216-4.846-11.216-11.05h22.428zm12.058 0c0 5.88-4.574 10.45-10.452 10.45V75.82h10.452zm-36.094 0v10.45c-5.769 0-10.448-4.57-10.448-10.45h10.448zm12.823-24.034c6.124 0 11.212 5.088 11.212 11.212s-5.088 11.216-11.212 11.216-11.216-5.092-11.216-11.216 5.092-11.212 11.216-11.212zm-12.823 0v22.428c-6.04 0-11.05-5.092-11.05-11.216s5.01-11.212 11.05-11.212zm25.642 0c6.203 0 11.05 5.088 11.05 11.212s-4.847 11.216-11.05 11.216zm12.819 1.686c3.24 1.879 5.36 5.444 5.36 9.526 0 4.083-2.12 7.651-5.36 9.526V53.472zm-51.117 0l-.163 19.052C56.204 70.65 54 67.081 54 62.998c0-4.082 2.204-7.647 5.523-9.526zM72.18 39.727v10.452H61.731c0-5.768 4.68-10.452 10.448-10.452zm12.823-.597c6.124 0 11.212 5.009 11.212 11.05H73.786c0-6.041 5.092-11.05 11.216-11.05zm12.819.597c5.878 0 10.452 4.684 10.452 10.452H97.821V39.727zM85 32c4.083 0 7.648 2.204 9.527 5.36H75.476C77.35 34.204 80.919 32 85.002 32z" fill="#28282A"/></g></svg>