<svg width="170" height="125" viewBox="0 0 170 125" xmlns="http://www.w3.org/2000/svg"><g fill="none" fill-rule="evenodd"><path d="M115.254 45.315c-1.528-2.616-3.38-5-5.556-7.176-2.175-2.176-4.56-4.028-7.175-5.532a34.045 34.045 0 00-8.264-3.427A35.153 35.153 0 0085.277 28c-3.078 0-6.064.417-8.98 1.18a32.088 32.088 0 00-6.46 2.477l6.598 1.111c2.824-.856 5.764-1.273 8.842-1.273 2.778 0 5.463.348 8.08 1.019a31.664 31.664 0 017.43 3.079 31.333 31.333 0 016.458 5 31.333 31.333 0 015 6.458 31.663 31.663 0 013.079 7.43 34.653 34.653 0 011.064 8.079c-.046 3.449-.578 6.713-1.62 9.815-1.065 3.078-2.523 5.926-4.398 8.518a32.26 32.26 0 01-6.76 6.76 31.185 31.185 0 01-8.495 4.397c-3.125 1.065-6.389 1.574-9.838 1.598-3.449-.024-6.712-.533-9.814-1.598-3.125-1.041-5.95-2.5-8.519-4.398a31.61 31.61 0 01-6.736-6.759c-1.921-2.57-3.38-5.393-4.421-8.518-1.042-3.102-1.574-6.366-1.597-9.815.023-3.449.555-6.736 1.597-9.838 1.042-3.079 2.5-5.903 4.421-8.495 1.62-2.246 3.519-4.213 5.671-5.95l-4.722-.44-.324.302a32.744 32.744 0 00-5.509 7.176 32.364 32.364 0 00-3.449 8.264 34.147 34.147 0 00-1.18 8.981c0 3.079.393 6.065 1.18 8.981a32.211 32.211 0 003.45 8.241 32.872 32.872 0 005.508 7.2c2.2 2.198 4.584 4.05 7.176 5.531a33.736 33.736 0 008.287 3.45 36.335 36.335 0 008.981 1.18 36.19 36.19 0 008.982-1.18c2.917-.788 5.671-1.922 8.264-3.45 2.615-1.481 5-3.333 7.175-5.532a35.392 35.392 0 005.556-7.199 34.755 34.755 0 003.403-8.24 36.347 36.347 0 001.18-8.982 36.2 36.2 0 00-1.18-8.981 34.921 34.921 0 00-3.403-8.264" fill="#e7e8e8"/><path d="M99.398 45.8h5.324c.463 0 .74-.161.88-.439l.138-2.639-.254-.856-.88-.278-9.05-.046c-.556 0-.95.185-1.204.578-.255.394-.348 1.019-.302 1.875v16.042c0 .208.07.416.209.602.162.231.347.393.602.532.208.139.44.208.694.208l9.167.047c.463-.023.764-.162.903-.37l.231-.927-.116-2.291-.44-.486-.648-.116h-5.254v-4.028h3.148c.3 0 .579-.092.81-.254.278-.186.417-.417.417-.695V50.06c.023-.324-.047-.579-.232-.787-.162-.208-.463-.324-.88-.324h-3.263V45.8M99.838 65.199l-1.39 3.657-1.897-4.398a.932.932 0 00-.741-.37h-4.26l-.578.116c-.185.115-.278.3-.3.624l4.999 10.463v6.806l.162.787.555.602.626.231h2.569l.74-.231.464-.463.162-.51.023-7.222 5.023-10.532-.139-.486c-.07-.116-.254-.185-.51-.185h-4.513c-.232 0-.417.116-.556.347l-.44.764M72.106 45.94c.556 0 .996.208 1.32.625.3.416.532.972.671 1.69.162.74.232 1.55.232 2.453l-.116 3.333-.255 1.551c-.139.487-.324.903-.602 1.25-.231.324-.578.51-.972.51h-2.176V45.94h1.898zm4.19-3.634c-.81-.487-1.829-.741-3.079-.764H66.25c-.394 0-.74.138-.995.44l-.394.925V60.13l.255.672.555.44.533.138h8.148c.717 0 1.319-.162 1.828-.463.533-.324.973-.74 1.32-1.25.37-.509.671-1.041.926-1.62l1.018-4.19V49.62a14.592 14.592 0 00-.324-2.754 8.066 8.066 0 00-.949-2.616 5.392 5.392 0 00-1.875-1.944z" fill="#e7e8e8"/><path d="M73.426 46.565c-.324-.417-.764-.625-1.32-.625h-1.898v11.412h2.176c.394 0 .74-.186.972-.51.278-.347.463-.763.602-1.25l.255-1.55.116-3.334c0-.903-.07-1.713-.232-2.454-.139-.717-.37-1.273-.671-1.69" fill="#1D1d1F"/><path d="M92.291 45.361l.185-1.32-.046-1.319c0-.37-.07-.648-.254-.856l-.88-.278-9.028-.046c-.555 0-.949.185-1.203.578-.232.394-.348 1.019-.301 1.875l-.024 16.042.232.602.579.532.694.208 9.167.047c.463-.023.764-.162.902-.37.162-.232.232-.533.232-.927l-.116-2.291-.393-.486-.695-.116h-5.254v-4.028h3.148c.324 0 .602-.092.856-.254.232-.186.37-.417.37-.695V50.06c.024-.324-.046-.579-.23-.787-.163-.208-.464-.324-.834-.324h-3.31V45.8h5.347c.44 0 .717-.162.856-.44M86.481 74.504h-1.898l.95-4.514.948 4.514zm2.176-9.953c-.254-.324-.555-.486-.95-.486h-4.629c-.486.023-.833.162-1.064.44l-.463 1.087-4.329 17.176.023.324.07.232.3.393h4.051c.325 0 .579-.116.764-.324.162-.208.278-.51.394-.926l.995-3.657h3.704l.81 3.889.393.717c.163.209.371.301.626.301h4.074c.463 0 .694-.278.694-.81l-.046-.579-4.722-16.273c-.209-.717-.463-1.227-.695-1.504z" fill="#e7e8e8"/><path fill="#1D1d1F" d="M84.583 74.504h1.898l-.949-4.514-.949 4.514"/><g fill="#e7e8e8"><path d="M72.153 64.065c-.348.023-.58.139-.741.37l-.324.833-.023 13.542-.162.509-.556.139-.532-.185-.116-.463v-1.366c-.023-.3-.116-.532-.255-.694l-.555-.394-.695-.162h-1.643c-.347 0-.602.07-.857.232l-.578.578-.232.695v4.652l.232.695.509.486.51.185h8.888a.974.974 0 00.648-.324l.44-.625.116-.555V66.518c.046-.347.046-.74.023-1.11a2.16 2.16 0 00-.278-.95c-.185-.231-.44-.37-.81-.393h-3.01M58.218 31.981l.254.278.07.348-.07.44-.3.508-.348.325-.417.115c.255.116.37.255.44.394.046.116.023.324-.07.625l-.23.856.092.024-.046.162-1.39-.162.209-.903c.046-.14.07-.255.046-.324l-.115-.209-.37-.139-.533-.046-.533 1.482-1.32-.186 1.436-4.19 2.801.417.394.185zM70.208 33l1.39.162-1.46 4.167-1.388-.14L70.208 33zm2.385 1.204l.23-.186.649-.324.671-.139h.695c.44.047.81.186 1.134.417.301.209.51.486.579.857.07.347.046.74-.116 1.18l-.648 1.088-1.111.74-1.39.186c-.74-.092-1.226-.37-1.504-.833-.278-.44-.3-1.019-.07-1.69l.487-.833.394-.463zm-4.514-1.042c.277.139.44.37.509.718.092.347.046.74-.14 1.203a2.78 2.78 0 01-.393.787l-.532.579c-.162.116-.347.208-.532.301l-.625.162-2.755-.255 1.435-4.097 1.945.208.532.116.556.278zm-6.737-1.088l1.39.185.069 4.375-1.39-.185.024-.555-1.389-.186-.324.556-1.366-.185 2.986-4.005zm15.093.694l-6.597-1.11-19.167-3.31L50 36.703l11.157 1.134 4.722.44 12.107 1.203 2.685-5.995-4.236-.718z"/></g><path d="M61.597 33.44l-.07 1.55-.879-.092.95-1.458zm1.134-1.18l-1.389-.186-2.986 4.005 1.366.185.324-.556 1.39.186-.024.555 1.389.185-.07-4.375z" fill="#1D1d1F"/><path fill="#e7e8e8" d="M61.528 34.99l.07-1.55-.95 1.458.88.093"/><path d="M66.99 33.972l.14.162.046.324-.116.44-.3.602-.44.324-.626.046-.37-.092.74-2.037.371.023.556.208zm1.598-.092c-.07-.348-.232-.579-.51-.718l-.555-.278-.532-.116-1.945-.208-1.435 4.097 2.755.255.625-.162c.185-.093.37-.185.532-.301l.532-.579a2.78 2.78 0 00.394-.787c.185-.463.231-.856.139-1.203z" fill="#1D1d1F"/><path fill="#e7e8e8" d="M67.13 34.134l-.14-.162-.555-.208-.37-.023-.741 2.037.37.092.625-.046.44-.324.301-.602.116-.44-.046-.324"/><path d="M74.49 34.574l.37.139.186.278.046.393-.115.51-.37.624-.464.37-.532.093c-.231-.046-.417-.162-.51-.347-.092-.231-.069-.578.07-.949l.347-.671.51-.347.463-.093zm-1.666-.556l-.231.186-.394.463-.486.833c-.232.671-.209 1.25.07 1.69.277.463.763.74 1.504.833l1.389-.185 1.11-.74.65-1.089c.16-.44.184-.833.115-1.18-.07-.37-.278-.648-.579-.857a2.317 2.317 0 00-1.134-.417h-.695l-.671.14-.648.323z" fill="#1D1d1F"/><path d="M74.86 34.713l-.37-.139-.462.093-.51.347-.347.671c-.139.37-.162.718-.07.95.093.184.279.3.51.346l.532-.092.463-.37.37-.625.116-.51-.046-.393-.185-.278" fill="#e7e8e8"/><path fill="#1D1d1F" d="M71.597 33.162L70.208 33l-1.458 4.19 1.389.139 1.458-4.167M55.764 33.37l.255-.81.694.07.37.138c.07.07.07.186.023.348l-.208.254-.51.07-.624-.07zm2.708-1.11l-.254-.279-.394-.185-2.8-.416-1.436 4.19 1.32.185.532-1.482.532.046.37.14.116.208c.023.07 0 .185-.046.324l-.208.903 1.389.162.046-.162-.093-.024.232-.856c.092-.301.115-.51.07-.625-.07-.139-.186-.278-.44-.394l.416-.115.347-.325.301-.509.07-.44-.07-.347z"/><path d="M56.019 32.56l-.255.81.625.07.51-.07.207-.254c.047-.162.047-.278-.023-.348l-.37-.138-.694-.07" fill="#e7e8e8"/></g></svg>