<svg width="170" height="125" viewBox="0 0 170 125" xmlns="http://www.w3.org/2000/svg"><g fill="none" fill-rule="evenodd"><path d="M75.846 29c1.292.006 1.97 1.016 2.212 1.349.112.335.206.674.324 1.364.017.14.025.224.025.365 0 .564-.137.886-.346 1.41-.18.454-.26.74-.593 1.1-.485.525-.829.684-.97.876-.065.09-.564.552-.708.764-.144.214-.706 1.09-.932 1.568-.185.393-.166 1.045-.824 1.953-.268.372-.496.556-.64.993-.143.44-.14.73-.375 1.128-.431.726-.826 1.04-1.182 1.8-.342.737-.355 1.214-.584 1.987-.243.81-.798 1.131-.883 1.967-.046.392.045.623 0 1.021-.13 1.201-.962 1.63-1.558 2.686-.217.391-.217.68-.29 1.126-.099.623-.204.962-.401 1.562-.336 1.01-.307 1.642-.505 2.687-.13.685-.209 1.077-.321 1.762-.057.359-.269.534-.269.9l.003.35c0 .238-.147.353-.16.593-.043.539-.139.835-.213 1.368-.366 2.692-.866 4.142-1.518 6.778-.236.953-.23 1.52-.45 2.47-.165.71-.32 1.103-.376 1.832-.042.578-.036.9-.076 1.478-.049.663.028 1.041.028 1.707.003.384-.03.601-.077.982-.273 2.17-.746 3.758-.794 5.564v1.185l-.184 1.72v.294c.005.914-.838 1.803-1.65 1.803-1.104-.003-1.456-1.16-1.634-2.317-.11-.727-.229-1.145-.333-1.876-.056-.414-.254-.598-.347-1-.028-.142-.02-.227-.04-.35-.022-.122-.445-2.063-.772-3.367-.274-1.078-.567-3.086-.613-3.134-.056-.057-.197-.836-.259-1.603-.037-.452-.203-.928-.237-1.128-.03-.221.053-.347.017-.567-.101-.61-.136-.96-.271-1.558-.135-.575-.206-.877-.302-1.481v-.243c-.076-1.055-.412-2.293-.599-3.766-.083-.663-.05-1.053-.11-1.718-.05-.53-.09-1.248-.337-1.346-.342-.133-.452.358-.58.615-.278.559-.442.869-.676 1.453-.33.835-.446 1.332-.824 2.15-.42.905-.573 1.444-.956 2.37-.3.728-.776 1.379-1.47 1.397-.587.013-1.186-.639-1.214-1.18-.028-.432.198-1.4.491-2.19.31-.826.545-1.478.725-2.152.19-.72.308-.923.505-1.687.251-.994.638-1.654.912-2.641.321-1.166.637-1.699 1.018-2.847.178-.539.305-.925.452-1.478.07-.26.34-1.042.508-1.722.129-.53.23-1.094.372-1.345.28-.423.761-.53 1.275-.527 1.081 0 1.811.563 1.822 1.636.01.713-.096 1.56.037 2.284.01.495.082.3.155.782.297 1.894.43 2.136.582 3.629.189.86.321 2.412.321 2.412 0 .607.226 1.65.364 2.24.13.581-.005.813.209 1.72.16.7.262 1.59.282 1.829.023.308.099.895.153 1.2.036.222.082.702.226 1.447.171.51.115.937.352 1.481.06.144.146.302.305.302.135.003.262-.21.355-.392.316-.593.288-.968.517-1.603.287-.796.411-1.323.535-2.1.21-.888.423-2.575.824-4.191.406-1.634.565-2.573.877-4.221.218-1.129.449-1.811.644-2.88.115-.508.265-.79.262-1.315.043-.303.13-.492.19-.807.214-1.12.409-1.922.505-2.879v-.264c.05-.2.124-.666.375-1.16.262-.799.516-1.222.964-1.933.666-1.058.567-1.873.963-3.063.056-.09.352-.743.417-1.253.062-.065.229-.426.299-.847.153-.175.805-2.92 1.261-4.028.023-.271.255-.615.379-1 .11-.363.759-2.02 1.06-3.032.255-.818.175-1.343.511-2.125.36-.835.582-1.769.669-2.23.206-.514.406-.78.725-1.237.457-.657.75-1.083 1.495-1.377.347-.133.584-.279.95-.279zm21.936 13.525c.818.003 1.65.55 1.62 1.369-.03.654-.235.784-.377 1.021-.222.367-.137.979-1.385 1.1-.657-.003-1.47-.756-1.47-1.605-.002-.96.65-1.885 1.612-1.885zm8.111 2.802c1.143.003 1.721 1.126 1.69 2.37-.002.116-.042.178-.042.296 0 .316.045.491.045.807 0 .294-.101 1.075-.101 1.075 0 .606-.184.94-.184 1.546 0 .172.05.271.05.443 0 .347-.05.542-.078.889-.07.851.508.908.7 1.3.41.19.612.545 1.08.545.214.003.872-.276 1.05-.336.854-.378 1.35-.58 2.174-1.018 1.276-.672 1.8-1.217 3.045-1.995.82-.525 1.585-1.043 2.562-1.041.81 0 1.569.604 1.797 1.162.107.27.262.618.262.976 0 .13.057.198.057.325 0 .186-.006.296-.026.482-.059.528-.047.852-.24 1.343-.2.508-.541.692-.995.993-.505.344-.918.508-1.535.508h-.325c-.432-.002-.623-.135-1.058-.135-.682 0-1.1.276-1.707.58-.725.359-1.548.828-1.8.95-.71.331-2.16 1.102-3.492 1.898-2.731 1.63-4.619 2.502-7.263 4.257-1.024.683-1.302 1.013-2.39 1.586-.668.358-1.13.429-1.771.832-1.086.683-1.67 1.162-2.556 2.097-.781.662-1.902 1.819-2.853 2.301-.88.449-1.89 1.281-2.519 2.04-.13.159-.744.55-.826 1.479l.2 2.547c.003.486-.223.805-.192 1.377l.028 1.798c.003.674.229.744.229 1.306l.02.716c0 .847.335 1.287.35 2.127-.082.912.01 1.313.033 2.181.026.847.15 1.357.356 2.176.15.612.098.945.366 1.506.387.838.56 1.304.973 2.13.277.553.447 1.007.447 1.626.002 1.207-.962 1.96-2.257 2.096-.116.014-1.106.017-1.51-.251-.505-.347-.646-1.002-.677-1.609-.037-.843-.017-1.16-.158-2.02.009-.445-.107-.69-.223-1.114-.257-.962-.437-1.512-.46-2.505-.025-1.276.076-1.995.076-3.273-.053-.843-.118-1.32-.22-2.158-.107-.83-.268-1.313-.367-2.139-.169-1.396-.169-2.178-.248-3.583-.025-.345-.025-.528-.062-.87-.006-.422-.186-.625-.465-.628-.579 0-.824.423-1.326.708-.698.39-1.056.765-1.645 1.304-1.191.874-1.688 1.376-2.65 2.423-.634.689-.933 1.154-1.636 1.772-.567.496-.937.74-1.478 1.26-.446.427-.598.77-.94 1.293-.308.463-.6.649-1.02 1.016-1.528 1.343-1.821 1.292-3.705 3.676-.554.702-.963.798-1.101 1.03-.028.047-.652.559-.877.782-.31.31-.787.766-1.059.98-.6.483-.818.915-1.396 1.426-.657.575-1.07.928-1.907 1.204-.39.128-.541.269-.957.269-.857 0-1.442-.813-1.444-1.67 0-.545.271-.748.592-1.183.621-.841 1.041-1.278 1.826-1.958 1.286-1.13 1.74-2.085 3.168-3.036.497-.33 1.744-1.018 2.082-1.278a9.142 9.142 0 001.547-1.511c.2-.258.425-.325.617-.59.203-.285.271-.494.512-.754.54-.586.953-.826 1.61-1.286.855-.598 1.34-.864 2.15-1.527.576-.468.827-.874 1.286-1.453.915-1.14 1.772-1.444 2.957-2.307.55-.4.725-.788 1.154-1.315.234-.291 1.018-1.298 1.8-1.987.522-.46.84-.696 1.369-1.154.908-.784 1.227-.502 1.204-1.704 0-.209.056-.496-.254-.473-.287.025-.364.268-.575.456-.446.395-.722.59-1.318.582-1.216-.023-1.986-1.108-2.023-1.182-.345-.68-.9-2.748-.923-3.385 0 0-.039-.859 0-1.347.046-.612.203-1.73.585-2.395.209-.367.397-1.823.654-3.165.093-.489.364-.986.522-1.46.226-.682.335-1.097.747-1.69.729-1.04 1.132-2.217 2.405-2.21.284 0 .414.07.671.193.164.088.347.119.446.271.087.139.006.263.138.364.24.187.35.567.35.946 0 .216 0 .343-.025.555-.096.858-.615 1.205-1.154 1.879-.522.657-.65.872-.98 1.645-.267.63-.333 1.28-.465 1.952-.155.793-.29 1.499-.344 2.046-.02.175-.04.322-.04.503 0 .2.15.57.35.57.316 0 .598-.379.705-.678.254-.694.449-1.035.624-1.755.257-1.027.423-1.481.824-2.353.5-1.077.55-1.764.84-2.647.35-1.063.652-2.045 1.775-2.039.358 0 .593.002.903.183.703.392.877 1.06.877 1.865a7.453 7.453 0 01-.039.637c-.26 2.407-.858 3.705-1.056 6.128-.027.342 0 .545-.03.887-.05.607-.19.936-.186 1.549 0 .273.06.425.138.683.04.137.085.298.228.298.28 0 .399-.2.633-.35.454-.284.761-.38 1.207-.673.691-.455 1.137-.638 1.803-1.123.68-.497 1.376-1.265 2.082-1.721.691-.447.779-.333 1.518-.799.897-.568 1.438-.86 2.285-1.498.508-.39.527-.664 1.261-1.076.706-.4 1.115-.615 1.8-1.046.367-.232.55-.41.94-.59.324-.152.646-.299.646-.657-.003-.358-.226-.567-.41-.872-.262-.44-.31-.68-.312-1.19 0-.254-.009-.446.031-.695.16-.996.547-1.52.544-2.527l.031-.328c-.048-.037-.073-.082-.135-.082-.141 0-.223.181-.31.288-.26.3-.407.486-.658.79-.336.398-.553.612-.779 1.076-.132.253-.11.434-.214.7-.232.577-.398.921-.59 1.514-.528 1.591-.49 3.699-2.172 3.696a1.993 1.993 0 01-2.003-1.984c0-.637.18-1.607.259-1.679.27-.227.053-.837.212-.978.133-.11.183-.67.183-1.216 0-.254.07-.404.07-.655l.03-.409c0-.46.143-.7.21-1.151.136-.917.375-1.14.452-1.402.042-.152.031-.223.085-.373.296-.832.228-1.326 1.04-2.011.291-.29.475-.6.886-.6.951.002 1.214.544 1.46.52.445-.044.592-.385.908-.696.956-.92 1.571-2.04 2.914-2.037zm-10.625 5.868c.906 0 1.803.336 1.778 1.495-.012.686-.37 1.019-.613 1.654-.203.525-.099.88-.24 1.425-.215.81-.555.725-.507 2.095a45.815 45.815 0 01-.02 2.636c-.04.988-.853 1.684-1.843 1.699-.86.016-1.74-1.005-1.737-1.866 0-.615.175-.945.212-1.56.028-.536-.012-.837.024-1.37.054-.91.302-1.395.585-2.26.14-.43.132-.708.296-1.13.234-.614.302-.961.666-1.556.157-.672.663-1.265 1.399-1.262zm-24.706 3.197c.544 0 .933.268 1.219.739.279.463.516.75.516 1.292 0 .096-.028.15-.028.243.005.93-.774 1.665-1.705 1.665-.928-.007-1.605-.957-1.602-1.77 0-.324.2-.53.234-.886.087-.837.624-1.286 1.366-1.283zm6.81 2.51c.954.004 1.377.788 1.845 1.62.46.807.974 1.244.974 2.164 0 .926-.604 1.389-1.317 1.978-.405.336-.757.266-1.287.426-.243.074-.294.403-.325.697-.056.537-.096.838-.107 1.372-.023.891.009 1.396.011 2.284-.093.495-.011.827-.242 1.265-.37.702-.954 1.05-1.75 1.046-.922 0-1.712-.73-1.696-1.656.004-.274.12-1.106.105-1.817-.025-1.078-.11-1.69-.113-2.77-.003-.539.24-.827.24-1.372v-.454c-.014-.395.372-.753.776-1.075.578-.463.82-.979 1.092-1.67.448-1.14.696-2.038 1.794-2.038zm-6.802 4.27c.463.005.78.172 1.052.539.44.598.715 1.041.717 1.78 0 .16-.011.248-.026.406-.072.606-.268.934-.592 1.45-.203.327-.208.582-.37.94-.305.652-.484 1.256-.51 1.775a43.726 43.726 0 00-.02 2.742c.011.533.136.829.136 1.36.005 1.11-.646 2.24-1.758 2.24-1.1.003-2.15-1.454-2.094-2.989.025-.552.113-.857.214-1.398.164-.85.297-1.811.452-2.179.212-.485.198-.66.237-.809l.127-.877c0-.36.141-.435.2-.788.122-.756.209-1.176.452-1.907.147-.451.353-.657.508-1.1.228-.638.598-1.185 1.275-1.185z" fill="#28282A"/></g></svg>