<svg width="170" height="125" viewBox="0 0 170 125" xmlns="http://www.w3.org/2000/svg"><g fill="none" fill-rule="evenodd"><path d="M99.01 58.457l-.152.512-.058.221-.07.222-.058.221-.07.221-.058.222-.058.221-.07.222-.059.221-.07.233-.07.221-.046.221-.268.886-.245.874-.256.897-.256.885-.245.886-.256.885-.257.897-.256.886-.244.885-.257.897-.256.886-.256.897-.257.885-.268.862-.081.21-.082.21-.081.198-.093.198-.187.373-.105.186-.116.175-.21.35-.233.349-.117.163-.128.151-.128.164-.128.163-.14.15-.128.14-.14.153-.14.139-.14.152-.15.14-.152.128-.164.127-.14.14-.162.129-.164.116-.163.128-.163.117-.163.128-.174.116-.35.21-.186.105-.187.093-.198.093-.198.082-.187.093-.186.117-.186.093-.198.081-.21.082-.198.082-.21.081-.419.14-.21.082-.221.057-.233.059-.222.058-.466.117-.221.058-.245.047-.244.035-.233.058-.734.104-.245.047-.221.035-.233.024-.245.011-.536.047-.268.011-.256.024-.257.023-.279.011-.268.012-.245.012h-1.002l-.244-.024-.268-.01-.233-.024-.222-.024-.221-.011-.233-.035-.256-.023-.268-.024-.49-.07-.233-.058-.466-.093-.22-.058-.234-.07-.221-.07-.222-.058-.21-.07-.221-.07-.21-.082-.21-.07-.209-.081-.198-.082-.198-.082-.198-.081-.198-.105-.187-.105-.186-.093-.175-.093-.186-.117-.35-.21-.186-.104-.163-.117-.175-.128-.151-.116-.164-.128-.163-.117-.163-.128-.151-.14-.152-.128-.163-.128-.151-.14-.14-.128-.152-.152-.127-.14-.129-.151-.116-.14-.105-.151-.116-.151-.129-.175-.116-.164-.117-.174-.104-.163-.106-.198-.093-.187-.093-.186-.081-.21-.094-.186-.07-.21-.14-.442-.116-.443-.093-.49-.035-.244-.012-.269-.011-.256.011-.267.035-.246.047-.232.047-.198.046-.21.058-.233.07-.222.059-.22.256-.886.245-.897.512-1.771.245-.897.256-.885.256-.898.059-.21.07-.232.058-.222.14-.49 3.728-.768-.886 1.165 8.05-1.783-.162.571-.117.443-.058.21-.07.221-.513 1.77-.244.898-.257.886-.07.233-.046.233-.07.489-.012.268v.28l.012.279.024.257.046.232.047.233.081.221.093.187.117.175.128.151.14.14.163.128.186.093.21.07.233.047h.245l.244-.023.222-.07.198-.082.186-.093.186-.117.163-.116.176-.117.151-.128.151-.128.152-.14.128-.151.117-.152.14-.163.232-.326.117-.174.104-.175.105-.187.094-.186.081-.198.14-.443.07-.221.058-.222.256-.885.245-.886.268-.885.245-.885.512-1.771.07-.221.058-.222.14-.477 9.763-2.168.233-.058.245-.058.256-.047.455-.104zm-30.99 5.79l.058.035.012.093-.012.07-.035.14-.023.104-.059.164-.116.442-.07.233-.117.443-.256.886-.256.896-.047.163-.023.094-.047.116-.046.082-.117.046-.093.024h-.163l-.14.011h-.49l-.279-.011h-1.293l-.268.011h-3.088l-3.518 12.478-.664-.07H40.28l-.14.012-.07-.035-.058-.105-.012-.093.024-.128.023-.117.07-.151.116-.443.07-.222.058-.233.059-.221.256-.885.49-1.795.256-.885.49-1.794.255-.886.49-1.794.256-.885.256-.897.245-.897.116-.443.128-.431 13.515-2.621-.396.244-.186.117-.175.105-.175.116-.35.21-.175.116-.186.105-.699.443-.71.431-.129.082-.081.046-.082.07-.046.07v.105l.046.046.128.036h.117l.175-.036.244-.058.233-.035.234-.058.233-.046.244-.047.233-.047.245-.046.943-.199.956-.197.943-.199.944-.186.944-.198.955-.198.944-.198.955-.187 1.887-.396.956-.186.92-.198.222-.035.198-.047.128-.035h.093l.117-.012zM115.402 45l-.093.548-.024.245-.046.244-.012.233.012.221.07.21.093.187.081.198.198.396.082.186.093.187.187.396.081.186.105.198.361.78.373.782.361.768.187.42L119.375 45h10.648l.14.023.07.035.012.093v.094l-.07.233-.047.163-.058.233-.058.221-.07.222-.059.22-.058.222-.07.222-.245.897-.256.885-.256.897-.245.897-.256.886-.245.885-.256.897-.245.886-.256.897-.256.885-.245.897-.256.886-.245.897-.256.885-.245.886-.256.897-.245.897-.256.874-.256.885-.245.897-.257.897-.244.886-.256.885-.245.897-.256.897-.257.885-.244.886-.257.897-.244.886-.245.897-.256.897-.257.885-.244.897-.256.886-.257.897-.245.885-.058.222-.07.233-.058.22-.047.164-.035.093-.046.117-.046.058-.117.059-.105.023h-10.16l-.116-.012-.14-.011-.07-.036-.023-.104v-.082l.035-.14.035-.104.047-.163.058-.234.07-.221.058-.221.047-.233.07-.222.058-.221.244-.909.49-1.794.233-.897.49-1.794.244-.91.734-2.69.233-.897.244-.91.49-1.793.093-.443v-.221l-.058-.21-.093-.198-.082-.198-.081-.187-.094-.21-.35-.78-.36-.78-.35-.793-.361-.792-.35-.78-.081-.199-.093-.198-.07-.151-.047-.07-.058-.07-.047-.023-.07.07-.034.07-.036.128-.034.116-.047.163-.058.233-.058.222-.07.233-.047.221-.07.221-.49 1.795-.233.897-.244.885-.256.909-.49 1.794-.232.897-.49 1.794-.245.91-.244.884-.233.91-.49 1.794-.256.896-.244.897-.245.91-.245.896-.245.886-.057.221-.059.233-.07.221-.035.175-.035.094-.023.127-.058.07-.105.059-.105.023-.152.011h-9.494l-.28-.011-.28-.012h-.21l-.105-.023-.14-.023-.07-.047-.01-.093v-.093l.069-.233.035-.163.07-.233.058-.222.07-.221.117-.443.256-.897.256-.885.245-.897.513-1.77.244-.898.257-.886.256-.897.245-.885.256-.886.244-.897.245-.885.268-.897.245-.885.256-.898.245-.885.256-.885.245-.886.256-.897.256-.885.245-.886.257-.897.057-.222.14-.454.455-.093.233-.058.233-.047.233-.058.233-.047.233-.058.944-.21.932-.198 1.863-.419.944-.21.932-.198.932-.21.944-.21.174-.035.094-.023.128-.034.047-.036-.012-.023-.058-.011h-.152l-.128.011-.186.023-.245.036-.256.034-.233.047-.245.047-.245.046-.244.035-.245.047-.967.163-.979.163-.978.174-.967.176-.967.163-.979.174-.244.047-.245.047-.233.034-.583.094 3.367-11.896.164-.617h11.219zm-39.717.082l-2.644 9.343h-8.05l-.863 3.146h5.907l-1.083 3.833-.513.093-.245.047-.244.047-.233.034-.245.047-.245.047-.233.046-.244.047-.233.046-.967.175-.98.175-.966.175-.955.175-.979.174-.967.175-.967.163-.955.175-.49.093-.244.046-.175.035-.105.012-.14.023-.081-.011-.058-.035v-.035l.081-.082.082-.046.14-.082.197-.093.187-.082.175-.104.186-.105.757-.385.746-.384.757-.408.175-.105.187-.093.14-.082.081-.034.116-.047.047-.047v-.046l-.047-.023h-.14l-.127.011-.187.035-.245.035-.244.046-.245.024-.256.035-.257.035-.233.046-.256.035-.245.035-.244.047-.233.046-.222.036-.221.023-.256.023-.245.047-.244.035-.245.046-.245.035-1.002.152-.979.151-1.001.151-.98.152-.99.152-.99.15-.244.036-.257.035-.233.035-.233.046-.21.035-.232.023-.245.035-.21.035-.466.07-.256.035-.49.07-.244.047-.257.035-.244.035-.245.046-.256.035-.245.035-.256.035-.245.035-.232.047-.246.046-.733.128 5.08-18.197.139-.408h25.782zm12.152-.035l-4.485 15.495-4.707.769.28-.199.139-.104.28-.21.14-.105.14-.104.139-.094.151-.116.14-.093.28-.21.14-.105.57-.42.14-.093.105-.081.059-.047.07-.058.035-.035-.036-.047-.046-.011h-.117l-.104.011-.163.024-.21.035-.21.046-.198.035-.42.07-.21.035-1.653.303-1.655.303-.827.151-.827.152-.828.151-.209.035-.21.047-.21.035-.5.093 4.31-15.17.117-.441 10.59-.047zm14.994 0l-3.623 12.722-10.812 1.9 4.055-14.098.163-.524h10.217z" fill="#1A1919"/></g></svg>