<svg width="103" height="80" viewBox="0 0 103 80" xmlns="http://www.w3.org/2000/svg"><path d="M21.73 80c5.814 0 10.813-2.028 14.996-6.084C40.909 69.861 43 64.943 43 59.163c0-5.475-1.76-10.063-5.28-13.764-3.519-3.7-8.033-5.855-13.542-6.464C25.402 26.464 28.87 14.702 34.584 3.65L24.178 0C8.059 18.96 0 37.921 0 56.882c0 6.895 2.04 12.472 6.121 16.73C10.201 77.871 15.405 80 21.73 80zm59.924 0c5.835 0 10.852-2.028 15.05-6.084C100.9 69.861 103 64.943 103 59.163c0-5.475-1.766-10.063-5.298-13.764-3.532-3.7-8.063-5.855-13.591-6.464 1.228-12.471 4.71-24.233 10.443-35.285L84.11 0C68.037 18.86 60 37.82 60 56.882c0 6.895 2.022 12.472 6.066 16.73C70.11 77.871 75.306 80 81.654 80z" fill="#F7A900" fill-rule="nonzero"/></svg>